<?xml version="1.0" encoding="utf-8"?>
<!-- Generator: Adobe Illustrator 13.0.0, SVG Export Plug-In . SVG Version: 6.00 Build 14948)  -->
<!DOCTYPE svg PUBLIC "-//W3C//DTD SVG 1.1//EN" "http://www.w3.org/Graphics/SVG/1.1/DTD/svg11.dtd">
<svg version="1.1" id="Ebene_1" xmlns="http://www.w3.org/2000/svg" xmlns:xlink="http://www.w3.org/1999/xlink" x="0px" y="0px"
	 width="13px" height="13px" viewBox="0 0 13 13" enable-background="new 0 0 13 13" xml:space="preserve">
<path opacity="0.7" d="M11.001,0.999H2c-0.552,0-1,0.448-1,1v9.002c0,0.552,0.448,1,1,1h9.001c0.552,0,1-0.448,1-1V1.999
	C12.001,1.447,11.553,0.999,11.001,0.999z"/>
<rect fill="none" width="13" height="13"/>
<linearGradient id="SVGID_1_" gradientUnits="userSpaceOnUse" x1="6.4995" y1="3.9287" x2="6.4995" y2="21.9297">
	<stop  offset="0" style="stop-color:#FFFFFF"/>
	<stop  offset="1" style="stop-color:#B2B2B2"/>
</linearGradient>
<rect x="2" y="2" fill="url(#SVGID_1_)" width="9" height="9"/>
<linearGradient id="SVGID_2_" gradientUnits="userSpaceOnUse" x1="6.4995" y1="4.5908" x2="6.4995" y2="19.9773">
	<stop  offset="0" style="stop-color:#3687FF"/>
	<stop  offset="1" style="stop-color:#051F7D"/>
</linearGradient>
<polygon fill="url(#SVGID_2_)" points="9.5,5.75 7.25,5.75 7.25,3.5 5.75,3.5 5.75,5.75 3.5,5.75 3.5,7.25 5.75,7.25 5.75,9.5 
	7.25,9.5 7.25,7.25 9.5,7.25 "/>
</svg>
